<svg width="50" height="50" viewBox="0 0 50 50" fill="none" xmlns="http://www.w3.org/2000/svg">
<path d="M25 29.1666C27.3012 29.1666 29.1667 27.3012 29.1667 25C29.1667 22.6988 27.3012 20.8333 25 20.8333C22.6988 20.8333 20.8333 22.6988 20.8333 25C20.8333 27.3012 22.6988 29.1666 25 29.1666Z" fill="#2C3E50" stroke="#2C3E50" stroke-width="3.125" stroke-linecap="round" stroke-linejoin="round"/>
<path d="M4.16667 25L7.29167 29.1667C9.44141 31.7838 12.1445 33.8918 15.2065 35.3392C18.2685 36.7866 21.6132 37.5372 25 37.5372C28.3868 37.5372 31.7315 36.7866 34.7935 35.3392C37.8555 33.8918 40.5586 31.7838 42.7083 29.1667L45.8333 25" stroke="#2C3E50" stroke-width="3.125" stroke-linecap="round" stroke-linejoin="round"/>
<path d="M4.16667 25L7.29167 20.8334C9.44141 18.2163 12.1445 16.1082 15.2065 14.6608C18.2685 13.2135 21.6132 12.4628 25 12.4628C28.3868 12.4628 31.7315 13.2135 34.7935 14.6608C37.8555 16.1082 40.5586 18.2163 42.7083 20.8334L45.8333 25" stroke="#2C3E50" stroke-width="3.125" stroke-linecap="round" stroke-linejoin="round"/>
</svg>
