<svg width="44" height="44" viewBox="0 0 44 44" fill="none" xmlns="http://www.w3.org/2000/svg">
<path d="M16.5 7.42081H9.16668C8.15415 7.42081 7.33334 8.22998 7.33334 9.22814V16.4574C7.33334 17.4556 8.15415 18.2648 9.16668 18.2648H16.5C17.5125 18.2648 18.3333 17.4556 18.3333 16.4574V9.22814C18.3333 8.22998 17.5125 7.42081 16.5 7.42081Z" fill="#294266" stroke="#294266" stroke-width="2.75" stroke-linecap="round" stroke-linejoin="round"/>
<path d="M16.5 25.4941H9.16668C8.15415 25.4941 7.33334 26.3033 7.33334 27.3014V34.5308C7.33334 35.5289 8.15415 36.3381 9.16668 36.3381H16.5C17.5125 36.3381 18.3333 35.5289 18.3333 34.5308V27.3014C18.3333 26.3033 17.5125 25.4941 16.5 25.4941Z" fill="#294366" stroke="#294366" stroke-width="2.75" stroke-linecap="round" stroke-linejoin="round"/>
<path d="M34.8333 25.4941H27.5C26.4875 25.4941 25.6667 26.3033 25.6667 27.3014V34.5308C25.6667 35.5289 26.4875 36.3381 27.5 36.3381H34.8333C35.8458 36.3381 36.6667 35.5289 36.6667 34.5308V27.3014C36.6667 26.3033 35.8458 25.4941 34.8333 25.4941Z" fill="#294266" stroke="#294266" stroke-width="2.75" stroke-linecap="round" stroke-linejoin="round"/>
<path d="M25.6667 12.8428H36.6667" stroke="#294266" stroke-width="2.75" stroke-linecap="round" stroke-linejoin="round"/>
<path d="M31.1667 7.42081V18.2648" stroke="#294266" stroke-width="2.75" stroke-linecap="round" stroke-linejoin="round"/>
</svg>
